<svg xmlns="http://www.w3.org/2000/svg" width="16" height="20" viewBox="0 0 16 20"><defs><clipPath id="a"><path fill="#fff" d="M186 188h12a2 2 0 0 1 2 2v16a2 2 0 0 1-2 2h-12a2 2 0 0 1-2-2v-16c0-1.1.9-2 2-2z"/></clipPath></defs><path fill="none" stroke="#000" stroke-miterlimit="50" stroke-width="4" d="M186 188h12a2 2 0 0 1 2 2v16a2 2 0 0 1-2 2h-12a2 2 0 0 1-2-2v-16c0-1.1.9-2 2-2z" clip-path="url(&quot;#a&quot;)" transform="translate(-184 -188)"/><path d="M4 12v-2h2v2zM4 8V6h8v2zM7 12v-2h2v2zM10 12v-2h2v2zM4 15v-2h2v2zM7 15v-2h2v2zM10 15v-2h2v2z"/></svg>