<svg xmlns="http://www.w3.org/2000/svg" width="23" height="22" viewBox="0 0 23 22"><defs><clipPath id="a"><path fill="#fff" d="M191.65 160.99a2.5 2.5 0 1 1-3.53 3.53 2.5 2.5 0 0 1 3.53-3.53z"/></clipPath><clipPath id="b"><path fill="#fff" d="M197.89 167.47a2.5 2.5 0 1 1-3.54 3.54 2.5 2.5 0 0 1 3.54-3.53z"/></clipPath><clipPath id="c"><path fill="#fff" d="M196.54 161.05l1.41 1.41-8.49 8.49-1.41-1.41z"/></clipPath></defs><path fill="none" stroke="#000" stroke-miterlimit="50" stroke-width="2" d="M4.6 4.27A10 10 0 1 1 2 11"/><path d="M6 11L3 7l-3 4z"/><path fill="none" stroke="#000" stroke-miterlimit="50" stroke-width="4" d="M191.65 160.99a2.5 2.5 0 1 1-3.53 3.53 2.5 2.5 0 0 1 3.53-3.53z" clip-path="url(&quot;#a&quot;)" transform="translate(-181 -155)"/><path fill="none" stroke="#000" stroke-miterlimit="50" stroke-width="4" d="M197.89 167.47a2.5 2.5 0 1 1-3.54 3.54 2.5 2.5 0 0 1 3.54-3.53z" clip-path="url(&quot;#b&quot;)" transform="translate(-181 -155)"/><path fill="none" stroke="#000" stroke-miterlimit="50" stroke-width="4" d="M196.54 161.05l1.41 1.41-8.49 8.49-1.41-1.41z" clip-path="url(&quot;#c&quot;)" transform="translate(-181 -155)"/></svg>