<svg xmlns="http://www.w3.org/2000/svg" width="23" height="22" viewBox="0 0 23 22"><defs><clipPath id="a"><path fill="#fff" d="M193 96a3 3 0 0 1 3 3v5a3 3 0 1 1-6 0v-5a3 3 0 0 1 3-3z"/></clipPath><clipPath id="b"><path fill="#fff" d="M190 99h6a2 2 0 0 1 2 2v4a2 2 0 0 1-2 2h-6a2 2 0 0 1-2-2v-4c0-1.1.9-2 2-2z"/></clipPath></defs><path fill="none" stroke="#000" stroke-miterlimit="50" stroke-width="2" d="M4.6 4.27A10 10 0 1 1 2 11"/><path d="M6 11L3 7l-3 4z"/><path fill="none" stroke="#000" stroke-miterlimit="50" stroke-width="4" d="M193 96a3 3 0 0 1 3 3v5a3 3 0 1 1-6 0v-5a3 3 0 0 1 3-3z" clip-path="url(&quot;#a&quot;)" transform="translate(-181 -91)"/><path fill="#fff" d="M9 8h6a2 2 0 0 1 2 2v4a2 2 0 0 1-2 2H9a2 2 0 0 1-2-2v-4c0-1.1.9-2 2-2z"/><path fill="none" stroke="#000" stroke-miterlimit="50" stroke-width="4" d="M190 99h6a2 2 0 0 1 2 2v4a2 2 0 0 1-2 2h-6a2 2 0 0 1-2-2v-4c0-1.1.9-2 2-2z" clip-path="url(&quot;#b&quot;)" transform="translate(-181 -91)"/><path d="M13 11h1a1 1 0 0 1 0 2h-1a1 1 0 0 1 0-2z"/></svg>