<svg xmlns="http://www.w3.org/2000/svg" width="18" height="23" viewBox="0 0 18 23"><defs><clipPath id="a"><path fill="#fff" d="M192 123a5 5 0 0 1 5 5v4a5 5 0 0 1-10 0v-4a5 5 0 0 1 5-5z"/></clipPath><clipPath id="b"><path fill="#fff" d="M185 131h14a2 2 0 0 1 2 2v11a2 2 0 0 1-2 2h-14a2 2 0 0 1-2-2v-11c0-1.1.9-2 2-2z"/></clipPath></defs><path fill="none" stroke="#000" stroke-miterlimit="50" stroke-width="4" d="M192 123a5 5 0 0 1 5 5v4a5 5 0 0 1-10 0v-4a5 5 0 0 1 5-5z" clip-path="url(&quot;#a&quot;)" transform="translate(-183 -123)"/><path fill="#fff" d="M2 8h14a2 2 0 0 1 2 2v11a2 2 0 0 1-2 2H2a2 2 0 0 1-2-2V10c0-1.1.9-2 2-2z"/><path fill="none" stroke="#000" stroke-miterlimit="50" stroke-width="4" d="M185 131h14a2 2 0 0 1 2 2v11a2 2 0 0 1-2 2h-14a2 2 0 0 1-2-2v-11c0-1.1.9-2 2-2z" clip-path="url(&quot;#b&quot;)" transform="translate(-183 -123)"/><path d="M12 13h4a1 1 0 0 1 0 2h-4a1 1 0 0 1 0-2zM12 16h4a1 1 0 0 1 0 2h-4a1 1 0 0 1 0-2z"/></svg>